<svg xmlns="http://www.w3.org/2000/svg" viewBox="0 0 259.37 83.83"><defs><style>.cls-1{fill:#f27028;}</style></defs><g id="Layer_2" data-name="Layer 2"><g id="Layer_1-2" data-name="Layer 1"><path class="cls-1" d="M64.77,31.81c0,17.57-32.45,44.31-32.45,44.31S0,49.38,0,31.81A31.66,31.66,0,0,1,1,24,32.06,32.06,0,0,1,32.32,0h.07V11.11h-.08A21.08,21.08,0,0,0,13,24a20,20,0,0,0-1.58,7.77c0,11.3,20.85,29.58,20.85,29.58S50.4,45.62,53,34.33H32.39V24H63.81A32.15,32.15,0,0,1,64.77,31.81Z"/><path class="cls-1" d="M70,8.26a6.37,6.37,0,0,1,6.54-6.45A6.3,6.3,0,0,1,83,8.26a6.37,6.37,0,0,1-6.45,6.54A6.44,6.44,0,0,1,70,8.26Z"/><rect class="cls-1" x="71.39" y="24.02" width="10.31" height="39.8"/><path class="cls-1" d="M110.47,23.26H106c-8.72,0-16.26,5.12-16.26,17.6v23H100V42.54c0-7.71,4.1-9.39,8.21-9.39s8.21,1.68,8.21,9.39V63.82h10.31v-23C126.73,28.38,119.19,23.26,110.47,23.26Z"/><path class="cls-1" d="M159.83,63.82,144.08,46.06V63.82H133.77v-62h10.31V39.44L157.76,24h12.66L154.3,42.2l19.11,21.62Z"/><path class="cls-1" d="M238.17,64.91a20.83,20.83,0,1,1,21.2-20.86A21,21,0,0,1,238.17,64.91Zm0-31.76a10.94,10.94,0,1,0,11.06,10.9A11.06,11.06,0,0,0,238.17,33.15Z"/><path class="cls-1" d="M203,26.26a21.47,21.47,0,0,0-8.82-2.88l-.3,0c-.21,0-.42,0-.62-.05l-.54,0H192a20.82,20.82,0,1,0-.37,41.64h1.18l.46,0,.61,0,.4,0,.78-.1c.23,0,.45-.08.69-.12s.68-.14,1-.22A21.09,21.09,0,0,0,203,61.87V64c0,.32,0,.63,0,.93h0c0,.24,0,.47,0,.69v.27c-.27,7-3.61,9.46-7.45,10.09h-.09c-.85.09-1.79.14-2.83.15h-.42l6.84,7.71c9.64,0,14.11-8,14.11-22.85V44.05A20.61,20.61,0,0,0,203,26.26ZM192,55a10.92,10.92,0,0,1-7.75-3.26l-.37-.38a13.5,13.5,0,0,1-1-1.25c-.19-.29-.38-.6-.55-.91s-.32-.62-.47-.95a10.87,10.87,0,0,1-.86-4.23,10.74,10.74,0,0,1,.86-4.18c.15-.31.31-.63.47-.94s.36-.61.55-.9a13.36,13.36,0,0,1,1-1.24l.37-.38A11,11,0,0,1,192,33.16,10.94,10.94,0,1,1,192,55Z"/></g></g></svg>